
<svg xmlns="http://www.w3.org/2000/svg" fill-rule="evenodd" clip-rule="evenodd" image-rendering="optimizeQuality" shape-rendering="geometricPrecision" text-rendering="geometricPrecision" viewBox="0 0 640 640">
  <path fill="#FFFFFF" d="M140.65 0H571.5c9.47 0 17.22 7.76 17.22 17.23V498.1c-.76 13.43-18.1 13.74-36.85 12.93H134.3a47.27 47.27 0 0 0-47.12 47.13 47.27 47.27 0 0 0 47.12 47.13h417.58v-50.14h36.85v63.74c0 11.62-9.5 21.12-21.12 21.12H136.09c-46.66 0-84.83-38.17-84.83-84.83V89.4C51.26 40.23 91.48 0 140.65 0zm16.6 69.78h14.9c7.62 0 13.84 5.03 13.84 11.2V432.4c0 6.16-6.22 11.2-13.83 11.2h-14.9c-7.61 0-13.84-5.04-13.84-11.2V80.98c0-6.17 6.23-11.2 13.83-11.2z"/>
</svg>
