<?xml version="1.0" standalone="no"?>
<!DOCTYPE svg PUBLIC "-//W3C//DTD SVG 20010904//EN"
 "http://www.w3.org/TR/2001/REC-SVG-20010904/DTD/svg10.dtd">
<svg version="1.0" xmlns="http://www.w3.org/2000/svg"
 width="700.000000pt" height="700.000000pt" viewBox="0 0 700.000000 700.000000"
 preserveAspectRatio="xMidYMid meet">
<metadata>
Created by potrace 1.11, written by Peter Selinger 2001-2013
</metadata>
<g transform="translate(0.000000,700.000000) scale(0.100000,-0.100000)"
fill="#000000" stroke="none">
<path d="M1370 6985 c-402 -73 -715 -386 -797 -796 -4 -19 -8 -1231 -10 -2694
-2 -2584 -2 -2662 17 -2745 35 -158 89 -277 175 -388 41 -53 152 -157 209
-196 85 -58 142 -87 226 -115 163 -53 23 -50 2650 -48 l2435 2 48 28 c26 15
55 40 64 55 10 15 20 29 23 32 23 20 28 108 29 445 l0 365 -198 0 c-150 0
-200 -3 -203 -12 -2 -7 -3 -131 -3 -275 l1 -263 -2301 0 c-1399 0 -2323 4
-2358 10 -83 13 -197 72 -260 135 -283 278 -184 710 198 864 36 15 258 16
2515 21 l2475 5 47 23 c25 13 55 35 65 50 17 26 18 125 18 2709 l0 2681 -31
39 c-17 21 -46 47 -65 58 -34 20 -53 20 -2464 22 -2005 1 -2443 -1 -2505 -12z
m601 -773 c69 -42 63 123 64 -2014 0 -1466 -3 -1948 -12 -1969 -6 -15 -29 -39
-50 -52 -35 -23 -49 -25 -165 -26 -110 -2 -132 1 -167 19 -77 39 -71 -144 -71
2028 l0 1949 21 27 c41 52 79 63 218 61 112 -1 131 -3 162 -23z"/>
</g>
</svg>
